<svg xmlns="http://www.w3.org/2000/svg" width="30" height="30" viewBox="0 0 30 30">
  <metadata><?xpacket begin="﻿" id="W5M0MpCehiHzreSzNTczkc9d"?>
<x:xmpmeta xmlns:x="adobe:ns:meta/" x:xmptk="Adobe XMP Core 5.6-c138 79.159824, 2016/09/14-01:09:01        ">
   <rdf:RDF xmlns:rdf="http://www.w3.org/1999/02/22-rdf-syntax-ns#">
      <rdf:Description rdf:about=""/>
   </rdf:RDF>
</x:xmpmeta>
                                                                                                    
                                                                                                    
                                                                                                    
                                                                                                    
                                                                                                    
                                                                                                    
                                                                                                    
                                                                                                    
                                                                                                    
                                                                                                    
                                                                                                    
                                                                                                    
                                                                                                    
                                                                                                    
                                                                                                    
                                                                                                    
                                                                                                    
                                                                                                    
                                                                                                    
                                                                                                    
                           
<?xpacket end="w"?></metadata>
<defs>
    <style>
      .cls-1 {
        fill: #af9a84;
        fill-rule: evenodd;
      }
    </style>
  </defs>
  <path class="cls-1" d="M14.97,0.966a14,14,0,1,1-14,14A14,14,0,0,1,14.97.966Zm0,1.208A12.795,12.795,0,1,1,2.174,14.969,12.795,12.795,0,0,1,14.969,2.174Z"/>
  <path id="Ellipse_9_copy_19" data-name="Ellipse 9 copy 19" class="cls-1" d="M18.121,13.793a2.6,2.6,0,0,1-1.727-1.138V11.879a9.374,9.374,0,0,1,.558-1.328,0.676,0.676,0,0,0,.214-0.112,1.78,1.78,0,0,0,.253-0.727c0.067-.246-0.232-0.256-0.232-0.256a6.588,6.588,0,0,0,.025-2.109,2.653,2.653,0,0,0-2.273-1.672,2.652,2.652,0,0,0-2.272,1.672,6.551,6.551,0,0,0,.03,2.109,0.21,0.21,0,0,0-.222.256,1.853,1.853,0,0,0,.275.727,0.745,0.745,0,0,0,.171.112,9.412,9.412,0,0,1,.558,1.328v0.775a2.6,2.6,0,0,1-1.728,1.138c-0.936.159-1.4,0.807-1.18,2.42,0.11,0.806,2.237,1.153,4.344,1.123,2.107,0.03,4.266-.317,4.376-1.123C19.51,14.6,19.057,13.952,18.121,13.793Zm-6.052,9.435L12.8,24.194a2.576,2.576,0,0,1,4.27,0l0.726-.967A3.709,3.709,0,0,0,12.069,23.227Zm-1.776-2.36,0.716,0.953a5.464,5.464,0,0,1,7.842,0l0.717-.953A6.642,6.642,0,0,0,10.293,20.867Z"/>
</svg>
